<?xml version="1.0" encoding="UTF-8" standalone="no"?>
<!-- Created with Inkscape (http://www.inkscape.org/) -->

<svg
   xmlns:dc="http://purl.org/dc/elements/1.1/"
   xmlns:cc="http://creativecommons.org/ns#"
   xmlns:rdf="http://www.w3.org/1999/02/22-rdf-syntax-ns#"
   xmlns:svg="http://www.w3.org/2000/svg"
   xmlns="http://www.w3.org/2000/svg"
   xmlns:xlink="http://www.w3.org/1999/xlink"
   version="1.1"
   width="3840"
   height="224"
   id="svg2">
  <metadata
     id="metadata8">
    <rdf:RDF>
      <cc:Work
         rdf:about="">
        <dc:format>image/svg+xml</dc:format>
        <dc:type
           rdf:resource="http://purl.org/dc/dcmitype/StillImage" />
        <dc:title></dc:title>
      </cc:Work>
    </rdf:RDF>
  </metadata>
  <defs
     id="defs6" />
  <image
     xlink:href="file:///C:/C_ImportantStuffUnited/DAE_1S2/PROG2/PROG_GAME_STUFF/PSDs/bgHit.png"
     x="0"
     y="0"
     width="3840"
     height="224"
     id="image10" />
  <path
     d="m 3248,213 0,-11 -119,0 -119,0 0,-1.5 0,-1.5 172,0 172,0 0,12.5 0,12.5 -53,0 -53,0 0,-11 z m -2960,-12.5 0,-1.5 31.5,0 31.5,0 0,1.5 0,1.5 -31.5,0 -31.5,0 0,-1.5 z m 320,0 0,-1.5 32,0 32,0 0,1.5 0,1.5 -32,0 -32,0 0,-1.5 z m 800,0.01 0,-1.50951 49.0833,0 49.0834,0 -0.4165,1.25 -0.4166,1.25 -48.6668,0.25951 -48.6668,0.25952 0,-1.50952 z m 321,-0.01 0,-1.5 95.5,0 95.5,0 0,1.5 0,1.5 -95.5,0 -95.5,0 0,-1.5 z m 607,0 0,-1.5 16,0 16,0 0,1.5 0,1.5 -16,0 -16,0 0,-1.5 z m 161.6667,0.83333 c -0.3667,-0.36666 -0.6667,-1.04166 -0.6667,-1.5 l 0,-0.83333 15.5,0 15.5,0 0,1.5 0,1.5 -14.8333,0 -14.8334,0 -0.6666,-0.66667 z M 2721,200.5 l 0,-1.5 47.5,0 47.5,0 0,1.5 0,1.5 -47.5,0 -47.5,0 0,-1.5 z m -2465,-32 0,-1.5 16,0 16,0 0,1.5 0,1.5 -16,0 -16,0 0,-1.5 z m 96,0 0,-1.5 16,0 16,0 0,1.5 0,1.5 -16,0 -16,0 0,-1.5 z m 2016,0 0,-1.5 48,0 48,0 0,1.5 0,1.5 -48,0 -48,0 0,-1.5 z m 480,0 0,-1.5 32,0 32,0 0,1.5 0,1.5 -32,0 -32,0 0,-1.5 z m 320,0 0,-1.5 16,0 16,0 0,1.5 0,1.5 -16,0 -16,0 0,-1.5 z m -1248,-1 0,-1.5 32.5,0 32.5,0 0,1.5 0,1.5 -32.5,0 -32.5,0 0,-1.5 z m 96,0 0,-1.5 32,0 32,0 0,1.5 0,1.5 -32,0 -32,0 0,-1.5 z m 512,-15 0,-1.5 16,0 16,0 0,1.5 0,1.5 -16,0 -16,0 0,-1.5 z m -1888,-1 0,-1.5 48,0 48,0 0,1.5 0,1.5 -48,0 -48,0 0,-1.5 z m 865,0 0,-1.5 31.5,0 31.5,0 0,1.5 0,1.5 -31.5,0 -31.5,0 0,-1.5 z m 607,0 0,-1.5 16,0 16,0 0,1.5 0,1.5 -16,0 -16,0 0,-1.5 z m 928,0 0,-1.5 48,0 48,0 0,1.5 0,1.5 -48,0 -48,0 0,-1.5 z m -1440,-15 0,-1.5 112,0 112,0 0,1.5 0,1.5 -112,0 -112,0 0,-1.5 z m 1024,0 0,-1.5 80,0 80,0 0,1.5 0,1.5 -80,0 -80,0 0,-1.5 z m 320,0 0,-1.5 32,0 32,0 0,1.5 0,1.5 -32,0 -32,0 0,-1.5 z m 192,0 0,-1.5 16,0 16,0 0,1.5 0,1.5 -16,0 -16,0 0,-1.5 z m -2976,-1 0,-1.5 47.5,0 47.5,0 0,1.5 0,1.5 -47.5,0 -47.5,0 0,-1.5 z m 256,0 0,-1.5 32,0 32,0 0,1.5 0,1.5 -32,0 -32,0 0,-1.5 z m 1760,0 0,-1.5 48,0 48,0 0,1.5 0,1.5 -48,0 -48,0 0,-1.5 z m 160,0 0,-1.5 32,0 32,0 0,1.5 0,1.5 -32,0 -32,0 0,-1.5 z m 912,-72 0,-63.5 1.5,0 1.5,0 0,63.5 0,63.5 -1.5,0 -1.5,0 0,-63.5 z m -3216,42 0,-1.5 368,0 368,0 0,1.5 0,1.5 -368,0 -368,0 0,-1.5 z m 864,0 0,-1.5 80,0 80,0 0,1.5 0,1.5 -80,0 -80,0 0,-1.5 z m 288,0 0,-1.5 128,0 128,0 0,1.5 0,1.5 -128,0 -128,0 0,-1.5 z m 1408,-1 0,-1.5 32,0 32,0 0,1.5 0,1.5 -32,0 -32,0 0,-1.5 z m -736,-1 0,-1.5 112,0 112,0 0,1.5 0,1.5 -112,0 -112,0 0,-1.5 z m 384,0 0,-1.5 32.5,0 32.5,0 0,1.5 0,1.5 -32.5,0 -32.5,0 0,-1.5 z m 224,0 0,-1.5 32,0 32,0 0,1.5 0,1.5 -32,0 -32,0 0,-1.5 z m 544,0 0,-1.5 64,0 64,0 0,1.5 0,1.5 -64,0 -64,0 0,-1.5 z m -1632,-31 0,-1.5 256,0 256,0 0,1.5 0,1.5 -256,0 -256,0 0,-1.5 z m 1120,0 0,-1.5 32,0 32,0 0,1.5 0,1.5 -32,0 -32,0 0,-1.5 z m -448,-1 0,-1.5 80,0 80,0 0,1.5 0,1.5 -80,0 -80,0 0,-1.5 z"
     id="path2987"
     style="fill:#000000" />
</svg>
